<?xml version="1.0" standalone="no"?>
<!DOCTYPE svg PUBLIC "-//W3C//DTD SVG 20010904//EN"
 "http://www.w3.org/TR/2001/REC-SVG-20010904/DTD/svg10.dtd">
<svg version="1.0" xmlns="http://www.w3.org/2000/svg"
 width="640.000000pt" height="640.000000pt" viewBox="0 0 640.000000 640.000000"
 preserveAspectRatio="xMidYMid meet">
<metadata>
Created by potrace 1.14, written by Peter Selinger 2001-2017
</metadata>
<g transform="translate(0.000000,640.000000) scale(0.100000,-0.100000)"
fill="#000000" stroke="none">
<path d="M2517 4759 c-211 -51 -417 -202 -517 -376 -34 -59 -36 -60 -60 -48
-14 7 -63 25 -110 41 -79 26 -97 28 -245 28 -155 1 -163 0 -255 -32 -301 -104
-518 -354 -571 -658 -17 -96 -6 -281 21 -369 33 -108 34 -105 -35 -124 -129
-36 -255 -111 -355 -211 -99 -99 -171 -224 -212 -366 -32 -112 -32 -305 0
-416 86 -304 296 -509 602 -590 l85 -23 2335 0 2335 0 85 23 c306 81 515 286
603 590 30 106 29 302 -1 413 -70 258 -266 473 -510 560 l-77 27 4 84 c15 381
-216 717 -579 839 -122 41 -298 51 -425 25 -74 -15 -81 -16 -90 -1 -133 216
-275 334 -485 407 -92 32 -100 33 -255 33 -179 0 -243 -13 -382 -82 l-73 -35
-57 53 c-121 110 -278 190 -428 218 -91 17 -258 12 -348 -10z m431 -325 c108
-22 224 -80 303 -152 l65 -60 70 34 c102 50 195 67 323 62 123 -6 201 -29 303
-89 80 -47 181 -146 223 -218 l30 -52 45 8 c25 4 101 8 170 8 109 -1 134 -4
198 -27 103 -37 175 -82 251 -159 74 -74 122 -148 159 -247 20 -55 26 -90 30
-194 l4 -126 57 -21 c153 -56 289 -177 361 -323 124 -250 74 -541 -127 -741
-73 -73 -145 -119 -245 -155 l-73 -27 -1862 -3 c-2063 -3 -1937 -6 -2077 63
-323 160 -454 543 -295 865 76 154 235 287 400 334 l56 16 -19 56 c-120 357
96 755 462 849 94 24 292 17 375 -14 33 -12 67 -24 75 -27 10 -3 27 14 50 52
19 31 68 88 109 126 157 146 367 205 579 162z"/>
<path d="M3090 4015 c-70 -20 -132 -57 -185 -110 -96 -95 -125 -185 -125 -382
l0 -134 -33 -33 c-72 -72 -72 -71 -72 -461 0 -340 1 -351 22 -390 28 -52 68
-89 123 -114 42 -19 64 -21 380 -21 316 0 338 2 380 21 55 25 95 62 123 114
21 39 22 50 22 390 0 350 0 350 -24 395 -13 24 -36 56 -51 70 -28 26 -28 27
-32 185 -5 179 -18 229 -83 317 -96 131 -288 197 -445 153z m238 -151 c112
-55 152 -134 160 -310 l5 -124 -293 0 -293 0 5 124 c7 144 23 191 88 256 60
60 109 80 201 80 61 0 85 -5 127 -26z m-55 -714 c54 -43 56 -122 5 -177 -21
-23 -21 -25 -9 -178 7 -85 10 -159 6 -165 -3 -5 -40 -10 -81 -10 l-74 0 0 46
c0 25 5 100 11 166 11 115 10 120 -10 142 -76 81 -30 196 79 196 32 0 55 -6
73 -20z"/>
</g>
</svg>
